<?xml version="1.0" encoding="iso-8859-1"?>
<!-- Generator: Adobe Illustrator 16.0.0, SVG Export Plug-In . SVG Version: 6.00 Build 0)  -->
<!DOCTYPE svg PUBLIC "-//W3C//DTD SVG 1.1 Tiny//EN" "http://www.w3.org/Graphics/SVG/1.1/DTD/svg11-tiny.dtd">
<svg version="1.1" baseProfile="tiny" id="&#x5716;&#x5C64;_1"
	 xmlns="http://www.w3.org/2000/svg" xmlns:xlink="http://www.w3.org/1999/xlink" x="0px" y="0px" width="512px" height="512px"
	 viewBox="0 0 512 512" xml:space="preserve">
<g>
	<g>
		
			<path fill-rule="evenodd" fill="none" stroke="#000000" stroke-width="2" stroke-linecap="round" stroke-linejoin="round" stroke-miterlimit="10" d="
			M439.5,193.5c2,8.167,4.289,16.275,5.938,24.513c3.104,15.503,4.113,31.305,2.881,46.973
			c-2.063,26.249-8.532,51.479-20.795,75.026c-7.597,14.586-16.732,28.039-27.455,40.547c-16,18.663-35.117,33.313-56.616,44.852
			c-14.622,7.849-30.196,13.412-46.438,17.149c-16.654,3.832-33.473,5.478-50.513,4.918c-18.651-0.612-36.858-3.998-54.481-10.034
			c-27.088-9.277-50.846-24.123-70.978-44.484c-19.377-19.599-33.994-42.254-43.124-68.431c-4.498-12.897-7.645-25.984-9.541-39.511
			c-1.776-12.674-1.971-25.376-1.197-38.007c0.863-14.077,3.21-28.06,7.907-41.48c0.38-1.086,0.167-2.043,0.413-3.03"/>
		
			<path fill-rule="evenodd" fill="none" stroke="#000000" stroke-width="2" stroke-linecap="round" stroke-linejoin="round" stroke-miterlimit="10" d="
			M349.5,158.5c-8.693-0.498-16.719,2.675-25.016,4.429c-6.424,1.357-12.955,2.481-19.494,2.939
			c-5.07,0.354-9.771-2.429-14.416-4.077c-12.493-4.433-25.137-4.799-38.077-3.821C229.864,159.679,210.862,168.964,195,185"/>
		
			<path fill-rule="evenodd" fill="none" stroke="#000000" stroke-width="2" stroke-linecap="round" stroke-linejoin="round" stroke-miterlimit="10" d="
			M353.5,162.5c0.895,8.53-2.188,16.468-4.192,24.451c-1.753,6.98-1.827,14.099-3.231,21.064c-0.213,1.057,0.546,2.333,0.931,3.482
			c3.603,10.75,7.054,21.433,7.616,32.996c1.06,21.791-4.125,41.603-16.602,59.521c-2.451,3.521-4.85,7.057-8.021,9.985"/>
	</g>
</g>
</svg>
